<svg xmlns="http://www.w3.org/2000/svg" width="920" height="560" viewBox="0 0 920 560">
<rect width="100%" height="100%" fill="#fbfaf7"/>
<text x="32" y="36" font-family="Arial, sans-serif" font-size="21" font-weight="700">Context Strategy Frontier: Quality vs Latency</text>
<text x="32" y="58" font-family="Arial, sans-serif" font-size="13" fill="#555">Quality = fact coverage; latency = p50 end-to-end seconds; point size = mean prompt tokens.</text>
<line x1="96" y1="460" x2="760" y2="460" stroke="#333" stroke-width="1"/>
<line x1="96" y1="72" x2="96" y2="460" stroke="#333" stroke-width="1"/>
<text x="348" y="520" font-family="Arial, sans-serif" font-size="13">p50 latency (s)</text>
<text x="18" y="266" font-family="Arial, sans-serif" font-size="13" transform="rotate(-90 18 266)">fact coverage</text>
<line x1="109.7" y1="155.5" x2="144.8" y2="155.5" stroke="#2563eb" stroke-width="1.5" opacity="0.7"/>
<line x1="120.0" y1="172.9" x2="120.0" y2="139.5" stroke="#2563eb" stroke-width="1.5" opacity="0.7"/>
<circle cx="120.0" cy="155.5" r="22.6" fill="#2563eb" stroke="#ffffff" stroke-width="2" opacity="0.74"/>
<text x="148.6" y="159.5" font-family="Arial, sans-serif" font-size="12" fill="#222">3b full_context</text>
<line x1="88.2" y1="176.7" x2="116.3" y2="176.7" stroke="#be123c" stroke-width="1.5" opacity="0.7"/>
<line x1="96.0" y1="193.0" x2="96.0" y2="161.0" stroke="#be123c" stroke-width="1.5" opacity="0.7"/>
<circle cx="96.0" cy="176.7" r="23.5" fill="#be123c" stroke="#ffffff" stroke-width="2" opacity="0.74"/>
<text x="125.5" y="180.7" font-family="Arial, sans-serif" font-size="12" fill="#222">3b prefix_cache_friendly</text>
<line x1="193.8" y1="162.5" x2="278.9" y2="162.5" stroke="#0f766e" stroke-width="1.5" opacity="0.7"/>
<line x1="231.4" y1="178.2" x2="231.4" y2="147.2" stroke="#0f766e" stroke-width="1.5" opacity="0.7"/>
<circle cx="231.4" cy="162.5" r="22.6" fill="#0f766e" stroke="#ffffff" stroke-width="2" opacity="0.74"/>
<text x="260.0" y="166.5" font-family="Arial, sans-serif" font-size="12" fill="#222">3b rag_topk</text>
<line x1="153.3" y1="236.4" x2="201.7" y2="236.4" stroke="#7c3aed" stroke-width="1.5" opacity="0.7"/>
<line x1="171.4" y1="253.5" x2="171.4" y2="220.6" stroke="#7c3aed" stroke-width="1.5" opacity="0.7"/>
<circle cx="171.4" cy="236.4" r="21.4" fill="#7c3aed" stroke="#ffffff" stroke-width="2" opacity="0.74"/>
<text x="198.8" y="240.4" font-family="Arial, sans-serif" font-size="12" fill="#222">3b structured_memory</text>
<line x1="122.3" y1="213.1" x2="219.5" y2="213.1" stroke="#b45309" stroke-width="1.5" opacity="0.7"/>
<line x1="188.4" y1="229.4" x2="188.4" y2="198.5" stroke="#b45309" stroke-width="1.5" opacity="0.7"/>
<circle cx="188.4" cy="213.1" r="19.9" fill="#b45309" stroke="#ffffff" stroke-width="2" opacity="0.74"/>
<text x="214.3" y="217.1" font-family="Arial, sans-serif" font-size="12" fill="#222">3b summary_memory</text>
<line x1="518.6" y1="178.9" x2="746.4" y2="178.9" stroke="#2563eb" stroke-width="1.5" opacity="0.7"/>
<line x1="628.7" y1="197.3" x2="628.7" y2="162.4" stroke="#2563eb" stroke-width="1.5" opacity="0.7"/>
<circle cx="628.7" cy="178.9" r="22.8" fill="#2563eb" stroke="#111827" stroke-width="2" opacity="0.74"/>
<text x="657.6" y="182.9" font-family="Arial, sans-serif" font-size="12" fill="#222">7b full_context</text>
<line x1="563.1" y1="175.6" x2="685.5" y2="175.6" stroke="#be123c" stroke-width="1.5" opacity="0.7"/>
<line x1="609.6" y1="192.0" x2="609.6" y2="161.4" stroke="#be123c" stroke-width="1.5" opacity="0.7"/>
<circle cx="609.6" cy="175.6" r="24.0" fill="#be123c" stroke="#111827" stroke-width="2" opacity="0.74"/>
<text x="639.6" y="179.6" font-family="Arial, sans-serif" font-size="12" fill="#222">7b prefix_cache_friendly</text>
<line x1="456.8" y1="178.0" x2="539.3" y2="178.0" stroke="#0f766e" stroke-width="1.5" opacity="0.7"/>
<line x1="472.9" y1="195.5" x2="472.9" y2="159.8" stroke="#0f766e" stroke-width="1.5" opacity="0.7"/>
<circle cx="472.9" cy="178.0" r="22.6" fill="#0f766e" stroke="#111827" stroke-width="2" opacity="0.74"/>
<text x="501.5" y="182.0" font-family="Arial, sans-serif" font-size="12" fill="#222">7b rag_topk</text>
<line x1="659.6" y1="229.9" x2="818.3" y2="229.9" stroke="#7c3aed" stroke-width="1.5" opacity="0.7"/>
<line x1="760.0" y1="246.7" x2="760.0" y2="213.4" stroke="#7c3aed" stroke-width="1.5" opacity="0.7"/>
<circle cx="760.0" cy="229.9" r="20.9" fill="#7c3aed" stroke="#111827" stroke-width="2" opacity="0.74"/>
<text x="786.9" y="233.9" font-family="Arial, sans-serif" font-size="12" fill="#222">7b structured_memory</text>
<line x1="528.4" y1="229.3" x2="654.1" y2="229.3" stroke="#b45309" stroke-width="1.5" opacity="0.7"/>
<line x1="591.2" y1="244.2" x2="591.2" y2="215.3" stroke="#b45309" stroke-width="1.5" opacity="0.7"/>
<circle cx="591.2" cy="229.3" r="19.9" fill="#b45309" stroke="#111827" stroke-width="2" opacity="0.74"/>
<text x="617.2" y="233.3" font-family="Arial, sans-serif" font-size="12" fill="#222">7b summary_memory</text>
<circle cx="790" cy="96" r="7" fill="#2563eb" stroke="#ffffff" stroke-width="2" opacity="0.74"/>
<text x="806" y="100" font-family="Arial, sans-serif" font-size="12">3b full_context</text>
<circle cx="790" cy="122" r="7" fill="#be123c" stroke="#ffffff" stroke-width="2" opacity="0.74"/>
<text x="806" y="126" font-family="Arial, sans-serif" font-size="12">3b prefix_cache_friendly</text>
<circle cx="790" cy="148" r="7" fill="#0f766e" stroke="#ffffff" stroke-width="2" opacity="0.74"/>
<text x="806" y="152" font-family="Arial, sans-serif" font-size="12">3b rag_topk</text>
<circle cx="790" cy="174" r="7" fill="#7c3aed" stroke="#ffffff" stroke-width="2" opacity="0.74"/>
<text x="806" y="178" font-family="Arial, sans-serif" font-size="12">3b structured_memory</text>
<circle cx="790" cy="200" r="7" fill="#b45309" stroke="#ffffff" stroke-width="2" opacity="0.74"/>
<text x="806" y="204" font-family="Arial, sans-serif" font-size="12">3b summary_memory</text>
<circle cx="790" cy="226" r="7" fill="#2563eb" stroke="#111827" stroke-width="2" opacity="0.74"/>
<text x="806" y="230" font-family="Arial, sans-serif" font-size="12">7b full_context</text>
<circle cx="790" cy="252" r="7" fill="#be123c" stroke="#111827" stroke-width="2" opacity="0.74"/>
<text x="806" y="256" font-family="Arial, sans-serif" font-size="12">7b prefix_cache_friendly</text>
<circle cx="790" cy="278" r="7" fill="#0f766e" stroke="#111827" stroke-width="2" opacity="0.74"/>
<text x="806" y="282" font-family="Arial, sans-serif" font-size="12">7b rag_topk</text>
<circle cx="790" cy="304" r="7" fill="#7c3aed" stroke="#111827" stroke-width="2" opacity="0.74"/>
<text x="806" y="308" font-family="Arial, sans-serif" font-size="12">7b structured_memory</text>
<circle cx="790" cy="330" r="7" fill="#b45309" stroke="#111827" stroke-width="2" opacity="0.74"/>
<text x="806" y="334" font-family="Arial, sans-serif" font-size="12">7b summary_memory</text>
</svg>
