<svg xmlns="http://www.w3.org/2000/svg" width="920" height="560" viewBox="0 0 920 560">
<rect width="100%" height="100%" fill="#fbfaf7"/>
<text x="32" y="36" font-family="Arial, sans-serif" font-size="21" font-weight="700">Context Strategy Frontier: Quality vs Latency</text>
<text x="32" y="58" font-family="Arial, sans-serif" font-size="13" fill="#555">Quality = fact coverage; latency = p50 end-to-end seconds; point size = mean prompt tokens.</text>
<line x1="96" y1="460" x2="760" y2="460" stroke="#333" stroke-width="1"/>
<line x1="96" y1="72" x2="96" y2="460" stroke="#333" stroke-width="1"/>
<text x="348" y="520" font-family="Arial, sans-serif" font-size="13">p50 latency (s)</text>
<text x="18" y="266" font-family="Arial, sans-serif" font-size="13" transform="rotate(-90 18 266)">fact coverage</text>
<line x1="163.2" y1="155.5" x2="330.0" y2="155.5" stroke="#2563eb" stroke-width="1.5" opacity="0.7"/>
<line x1="213.6" y1="173.8" x2="213.6" y2="139.1" stroke="#2563eb" stroke-width="1.5" opacity="0.7"/>
<circle cx="213.6" cy="155.5" r="23.1" fill="#2563eb" opacity="0.74"/>
<text x="242.7" y="159.5" font-family="Arial, sans-serif" font-size="12" fill="#222">full_context</text>
<line x1="57.2" y1="176.7" x2="197.1" y2="176.7" stroke="#be123c" stroke-width="1.5" opacity="0.7"/>
<line x1="96.0" y1="193.3" x2="96.0" y2="160.6" stroke="#be123c" stroke-width="1.5" opacity="0.7"/>
<circle cx="96.0" cy="176.7" r="24.0" fill="#be123c" opacity="0.74"/>
<text x="126.0" y="180.7" font-family="Arial, sans-serif" font-size="12" fill="#222">prefix_cache_friendly</text>
<line x1="551.4" y1="162.5" x2="992.8" y2="162.5" stroke="#0f766e" stroke-width="1.5" opacity="0.7"/>
<line x1="760.0" y1="180.5" x2="760.0" y2="145.7" stroke="#0f766e" stroke-width="1.5" opacity="0.7"/>
<circle cx="760.0" cy="162.5" r="23.0" fill="#0f766e" opacity="0.74"/>
<text x="789.0" y="166.5" font-family="Arial, sans-serif" font-size="12" fill="#222">rag_topk</text>
<line x1="377.6" y1="236.4" x2="615.4" y2="236.4" stroke="#7c3aed" stroke-width="1.5" opacity="0.7"/>
<line x1="465.5" y1="252.4" x2="465.5" y2="220.2" stroke="#7c3aed" stroke-width="1.5" opacity="0.7"/>
<circle cx="465.5" cy="236.4" r="21.8" fill="#7c3aed" opacity="0.74"/>
<text x="493.3" y="240.4" font-family="Arial, sans-serif" font-size="12" fill="#222">structured_memory</text>
<line x1="225.5" y1="213.1" x2="701.7" y2="213.1" stroke="#b45309" stroke-width="1.5" opacity="0.7"/>
<line x1="549.0" y1="228.6" x2="549.0" y2="197.0" stroke="#b45309" stroke-width="1.5" opacity="0.7"/>
<circle cx="549.0" cy="213.1" r="20.3" fill="#b45309" opacity="0.74"/>
<text x="575.3" y="217.1" font-family="Arial, sans-serif" font-size="12" fill="#222">summary_memory</text>
<circle cx="790" cy="96" r="7" fill="#2563eb" opacity="0.74"/>
<text x="806" y="100" font-family="Arial, sans-serif" font-size="12">full_context</text>
<circle cx="790" cy="122" r="7" fill="#be123c" opacity="0.74"/>
<text x="806" y="126" font-family="Arial, sans-serif" font-size="12">prefix_cache_friendly</text>
<circle cx="790" cy="148" r="7" fill="#0f766e" opacity="0.74"/>
<text x="806" y="152" font-family="Arial, sans-serif" font-size="12">rag_topk</text>
<circle cx="790" cy="174" r="7" fill="#7c3aed" opacity="0.74"/>
<text x="806" y="178" font-family="Arial, sans-serif" font-size="12">structured_memory</text>
<circle cx="790" cy="200" r="7" fill="#b45309" opacity="0.74"/>
<text x="806" y="204" font-family="Arial, sans-serif" font-size="12">summary_memory</text>
</svg>
